<svg class="fv-icon fv-phone" viewBox="0 0 32 32"><path d="M27.063 32a27.124 27.124 0 0 1-18.811-8.253C-.736 14.761-.008 4.505.028 4.073a.8.8 0 0 1 .231-.5l2.8-2.8a2.643 2.643 0 0 1 3.988.294L12.34 8.2a2.663 2.663 0 0 1-.255 3.449l-1.676 1.676a13.572 13.572 0 0 0 3.217 5.05 13.543 13.543 0 0 0 5.051 3.216l1.676-1.675a2.661 2.661 0 0 1 3.45-.254l7.126 5.286a2.647 2.647 0 0 1 .3 4L28.43 31.74a.79.79 0 0 1-.5.232c-.067.006-.37.028-.867.028zM1.611 4.484a25.729 25.729 0 0 0 7.773 18.133 25.778 25.778 0 0 0 18.135 7.773l2.574-2.574a1.048 1.048 0 0 0-.117-1.583l-7.126-5.286a1.054 1.054 0 0 0-1.366.1l-2.015 2.015a.8.8 0 0 1-.751.213 14.4 14.4 0 0 1-6.218-3.769 14.381 14.381 0 0 1-3.769-6.222.8.8 0 0 1 .212-.751l2.016-2.015a1.056 1.056 0 0 0 .1-1.365L5.762 2.02A1.03 1.03 0 0 0 5 1.6a1.019 1.019 0 0 0-.812.3z" class="fill-neutral"></path></svg>