<svg width="17px" height="17px" viewBox="0 0 51 51" version="1.1" xmlns="http://www.w3.org/2000/svg" xmlns:xlink="http://www.w3.org/1999/xlink">
                    <g id="Page-1" stroke="none" stroke-width="1" fill="none" fill-rule="evenodd">
                        <g id="Group" fill-rule="nonzero">
                            <g id="ic_video" fill="#FFFFFF">
                                <circle id="Oval" cx="25.5" cy="25.5" r="25.5"></circle>
                            </g>
                            <path d="M26.6279297,31.5800781 L26.6279297,30.2910156 C26.6279297,29.4316406 26.8105469,28.7369792 27.1757812,28.2070312 C27.5410156,27.6770833 28.4111328,26.9036458 29.7861328,25.8867188 C31.7913411,24.4544271 33.1520182,23.1653646 33.8681641,22.0195312 C34.5843099,20.8736979 34.9423828,19.5130208 34.9423828,17.9375 C34.9423828,15.5742188 34.0722656,13.6835938 32.3320312,12.265625 C30.5917969,10.8476562 28.2464193,10.1386719 25.2958984,10.1386719 C21.7151693,10.1386719 18.3277995,11.0338542 15.1337891,12.8242188 L15.1337891,12.8242188 L17.4755859,17.5292969 C20.2255859,16.125651 22.6748047,15.4238281 24.8232422,15.4238281 C26.055013,15.4238281 27.0146484,15.6673177 27.7021484,16.1542969 C28.3896484,16.641276 28.7333984,17.3502604 28.7333984,18.28125 C28.7333984,19.1119792 28.4934896,19.8639323 28.0136719,20.5371094 C27.5338542,21.2102865 26.5419922,22.0839844 25.0380859,23.1582031 C23.476888,24.3040365 22.4026693,25.3854167 21.8154297,26.4023438 C21.2281901,27.4192708 20.9345703,28.6152344 20.9345703,29.9902344 L20.9345703,29.9902344 L20.9345703,31.5800781 L26.6279297,31.5800781 Z M24.0283203,42.5800781 C25.2027995,42.5800781 26.1194661,42.2542318 26.7783203,41.6025391 C27.4371745,40.9508464 27.7666016,40.0592448 27.7666016,38.9277344 C27.7666016,37.7532552 27.4407552,36.8509115 26.7890625,36.2207031 C26.1373698,35.5904948 25.2171224,35.2753906 24.0283203,35.2753906 C22.7965495,35.2753906 21.8583984,35.5833333 21.2138672,36.1992188 C20.5693359,36.8151042 20.2470703,37.7246094 20.2470703,38.9277344 C20.2470703,40.0878906 20.5764974,40.9866536 21.2353516,41.6240234 C21.8942057,42.2613932 22.8251953,42.5800781 24.0283203,42.5800781 Z" id="?" fill="#333333"></path>
                        </g>
                    </g>
                </svg>