<svg xmlns="http://www.w3.org/2000/svg" viewBox="0 0 33 33" class="header-action-icon"><path d="M31.796 5.141c.175.222.24.511.177.787l-2.24 9.816a2.756 2.756 0 0 1-2.7 2.153H10.508a1.537 1.537 0 1 0 0 3.075h18.224v1.867H10.508a3.39 3.39 0 0 1-1.104-6.6L6.808 5.653a4.963 4.963 0 0 0-4.836-3.786H0V0h1.972a6.828 6.828 0 0 1 6.65 5.207l2.655 10.83h15.756a.901.901 0 0 0 .884-.704l1.98-8.676H11.796V4.791h19.27c.284 0 .553.129.73.35Zm-20.97 19.424a3.727 3.727 0 0 1 3.734 3.718 3.717 3.717 0 1 1-3.733-3.718Zm0 5.572v-.004a1.857 1.857 0 0 0 1.867-1.85 1.855 1.855 0 1 0-1.866 1.854Zm14.84-5.572a3.727 3.727 0 0 1 3.733 3.718 3.717 3.717 0 1 1-3.734-3.718Zm0 5.572v-.004a1.859 1.859 0 0 0 1.858-1.85 1.855 1.855 0 1 0-1.859 1.854Z" class="fill-neutral"></path></svg>