<svg class="fv-icon fv-expert-advice" viewBox="0 0 34 34"><path d="m32.4604375 34.0000015c-.4080072.0003174-.7992655-.1622288-1.0869375-.451564l-4.811-4.80675h-14.1769375c-.9975643 0-1.80625-.8086857-1.80625-1.80625v-14.2789375c0-.9975643.8086857-1.80625 1.80625-1.80625h19.8081875c.9975643 0 1.8062504.8086857 1.8062504 1.80625v19.805c.0002822.4083063-.1618645.7999551-.4506804 1.0885716-.2888158.2886166-.6805765.4504928-1.0888825.4499299zm-20.074875-21.448689c-.0586803 0-.10625.0475697-.10625.10625v14.28c0 .0586803.0475697.10625.10625.10625h14.5318125c.2251337.0001043.4410304.08952.6003125.248625l4.78125 4.78125v-19.416125c0-.0586803-.0475697-.10625-.10625-.10625zm4.6155 4.1766875h11.29225v1.59375h-11.29225zm0 4.902375h11.29225v1.59375h-11.29225zm-15.44875 1.8965625c-.20463423-.0005867-.40715872-.0413804-.5960625-.1200625-.57977351-.2392375-.95754664-.8050577-.95625333-1.43225v-20.1524375c.00117532-1.00629532.8169575-1.8216021 1.82325333-1.8221875h20.155625c1.005466.00175611 1.8199553.81672068 1.821125 1.8221875v5.905375h-1.7v-5.905375c-.0005773-.06782853-.0554215-.1226727-.12325-.12325h-20.1535c-.06782853.0005773-.1226727.05542147-.12325.12325v19.79225l4.8875-4.8875 1.2038125 1.20275-5.1435625 5.1414375c-.29011921.2913908-.68424705.4553878-1.0954375.4558125zm4.3573125-17.4505h11.6800625v1.59375h-11.6800625zm0 4.828h1.944375v1.59375h-1.944375z" class="fill-neutral"></path></svg>