<svg data-v-a1a2362c="" xmlns="http://www.w3.org/2000/svg" viewBox="0 0 31 33" class="header-action-icon"><path d="M16.017 14.052c3.39 0 6.14-2.73 6.14-6.098s-2.75-6.098-6.14-6.098c-3.391 0-6.14 2.73-6.14 6.098s2.749 6.098 6.14 6.098Zm0 1.856c-4.423 0-8.009-3.562-8.009-7.954C8.008 3.56 11.594 0 16.017 0s8.008 3.561 8.008 7.954c0 4.392-3.585 7.954-8.008 7.954ZM4.538 31.815H2.67c0-7.321 5.976-13.256 13.348-13.256 7.371 0 13.347 5.935 13.347 13.256h-1.869c0-6.296-5.139-11.4-11.478-11.4-6.34 0-11.479 5.104-11.479 11.4Z" class="fill-neutral"></path></svg>