<svg id="Ebene_3" data-name="Ebene 3" xmlns="http://www.w3.org/2000/svg" xmlns:xlink="http://www.w3.org/1999/xlink" width="337" height="76.3" viewBox="0 0 337 76.3"><defs><style>.cls-1,.cls-2{fill:none;stroke-miterlimit:3.86;stroke-width:2.47px;}.cls-1{stroke:#e30613;}.cls-2{stroke:#1d1d1b;}.cls-3{fill:url(#Unbenannter_Verlauf_3);}.cls-4{fill:url(#Unbenannter_Verlauf_3-2);}.cls-5{fill:url(#Unbenannter_Verlauf_3-3);}.cls-6{fill:#1d1d1b;}.cls-7{fill:#e30613;}.cls-8{fill:#1a171b;}</style><linearGradient id="Unbenannter_Verlauf_3" x1="1921.95" y1="1351.33" x2="2180.22" y2="1351.33" gradientTransform="matrix(1, 0, 0, -1, -1905.5, 1380)" gradientUnits="userSpaceOnUse"><stop offset="0" stop-color="#4a4a49"/><stop offset="1" stop-color="#1d1d1b"/></linearGradient><linearGradient id="Unbenannter_Verlauf_3-2" x1="1915.24" y1="1335.16" x2="2173.52" y2="1335.16" xlink:href="#Unbenannter_Verlauf_3"/><linearGradient id="Unbenannter_Verlauf_3-3" x1="1918.51" y1="1343.24" x2="2176.78" y2="1343.24" xlink:href="#Unbenannter_Verlauf_3"/></defs><title>Logo windows24_com_(R)</title><g id="Vordergrund"><polygon class="cls-1" points="291.78 1.64 306.25 1.64 298.43 22.35 283.97 22.35 291.78 1.64"/><polygon class="cls-2" points="301.32 26.45 315.78 26.45 307.96 47.16 293.5 47.16 301.32 26.45"/><polygon class="cls-2" points="310.68 1.64 325.14 1.64 317.33 22.35 302.87 22.35 310.68 1.64"/><polygon class="cls-2" points="282.42 26.45 296.88 26.45 289.06 47.16 274.61 47.16 282.42 26.45"/><path class="cls-3" d="M274.3,28.65c1.17-2.41,0-2.27-4.54-2.23L16.45,28.24l251.07,2.69h0C272.09,30.88,272.94,31.41,274.3,28.65Z" transform="translate(-0.92 0)"/><path class="cls-4" d="M267.59,44.81c1.18-2.41,0-2.27-4.54-2.22L9.74,44.4l251.07,2.69h0C265.38,47.05,266.24,47.58,267.59,44.81Z" transform="translate(-0.92 0)"/><path class="cls-5" d="M270.86,36.74c1.17-2.41,0-2.27-4.54-2.23L13,36.32,264.08,39h0C268.65,39,269.5,39.51,270.86,36.74Z" transform="translate(-0.92 0)"/><path class="cls-6" d="M34.74,59,26.21,76.29h-9L17,63.13H17L10.41,76.29H1.33L.92,59H9.71l.37,11h.07l5.51-11h10l.22,11h.07l5.66-11Z" transform="translate(-0.92 0)"/><path class="cls-6" d="M47.31,59,43,76.29H34.34L38.64,59Zm1.59-6.25-1.14,4.56H39.08l1.14-4.56Z" transform="translate(-0.92 0)"/><path class="cls-6" d="M73.23,65.11,70.44,76.29H61.76l3.16-12.64A1.78,1.78,0,0,0,65,63.2c0-.53-.35-.8-1-.8H60.36a1.41,1.41,0,0,0-1.47,1.25L55.73,76.29H47.06L51.36,59h8.27l-.44,1.8h.07a3.37,3.37,0,0,1,2.8-1.8h7c3,0,4.49,1.31,4.48,3.94A8.27,8.27,0,0,1,73.23,65.11Z" transform="translate(-0.92 0)"/><path class="cls-6" d="M102.86,52.76,97,76.29H88.56L89,74.45c-.88,1.22-1.7,1.84-2.46,1.84H79c-2.82,0-4.22-1.18-4.23-3.53A7.4,7.4,0,0,1,75,71.07l1.72-6.92Q78.05,59,83.34,59h7a1.6,1.6,0,0,1,1.79,1.39,1,1,0,0,1,0,.3h.08l2-7.94ZM91.46,63.64a1.5,1.5,0,0,0,.08-.47q0-.78-1-.78H87.13a1.49,1.49,0,0,0-1.55,1.25l-2,8a1.84,1.84,0,0,0-.07.47c0,.52.34.78,1,.78H88a1.44,1.44,0,0,0,1.47-1.25Z" transform="translate(-0.92 0)"/><path class="cls-6" d="M127.23,64l-1.8,7.28A7.2,7.2,0,0,1,123.52,75a5.93,5.93,0,0,1-4.12,1.33h-14q-3.83,0-3.82-2.94a9.47,9.47,0,0,1,.29-2.06L103.71,64a7.2,7.2,0,0,1,1.91-3.67A5.93,5.93,0,0,1,109.74,59h14q3.83,0,3.82,2.94A8.91,8.91,0,0,1,127.23,64Zm-8.56-.33a2.53,2.53,0,0,0,.07-.48q0-.81-1-.81H114a1.49,1.49,0,0,0-1.51,1.29l-2,7.94a2.24,2.24,0,0,0-.07.51q0,.78,1,.78h3.74a1.51,1.51,0,0,0,1.55-1.29Z" transform="translate(-0.92 0)"/><path class="cls-6" d="M165,59l-8.53,17.28h-9l-.22-13.16h-.07l-6.55,13.16h-9.08L131.13,59h8.78l.37,11h.08l5.51-11h10l.22,11h.07l5.66-11Z" transform="translate(-0.92 0)"/><path class="cls-6" d="M188.84,59l-.77,3.16H175.83c-.78,0-1.22.24-1.32.7l-.15.63q-.15.66,1,.66H183q3.75,0,3.75,2.79a6.3,6.3,0,0,1-.22,1.55l-.81,3.23A5.86,5.86,0,0,1,183.51,75a6.33,6.33,0,0,1-3.93,1.27H163.07l.78-3.16h12.31a1.15,1.15,0,0,0,1.28-.85l.15-.55c.15-.54-.15-.81-.88-.81h-7.87c-2.38,0-3.56-.93-3.56-2.8a5.85,5.85,0,0,1,.22-1.5l.81-3.31a5,5,0,0,1,2.3-3.12A7.23,7.23,0,0,1,172.67,59Z" transform="translate(-0.92 0)"/><path class="cls-6" d="M216.82,57.91,215.53,63a6,6,0,0,1-1.89,3.31,6.61,6.61,0,0,1-3.81,1.14l-9.66.47c-.71,0-1.19.52-1.44,1.48l-.77,3h15.22l-1,3.89H188l2.65-10.66a6.8,6.8,0,0,1,1.86-3.56,6.22,6.22,0,0,1,3.77-1.21l10.25-.55a1.26,1.26,0,0,0,1.25-1.11l.37-1.47c.17-.71-.27-1.06-1.32-1.06H193.29l1-3.9h17.64q5.15,0,5.15,3.23A8.14,8.14,0,0,1,216.82,57.91Z" transform="translate(-0.92 0)"/><path class="cls-6" d="M245.79,64.82,244.24,71h-4l-1.33,5.29h-8.82L231.41,71H215.75l1.44-5.74,17.2-12.5h10.4l-3,12.06Zm-10.92-7.76L223.8,64.82H233Z" transform="translate(-0.92 0)"/><path class="cls-7" d="M252,72.76l-.87,3.49h-4.91l.87-3.49Z" transform="translate(-0.92 0)"/><path class="cls-7" d="M266.68,66.49l-.47,1.91H261a1.18,1.18,0,0,0-1.26,1l-1,4a1.24,1.24,0,0,0,0,.33c0,.44.27.67.81.67h5.22l-.48,1.91h-8.14c-1.6,0-2.39-.66-2.39-2a3.65,3.65,0,0,1,.12-.93l1-4a3.48,3.48,0,0,1,3.71-2.9Z" transform="translate(-0.92 0)"/><path class="cls-7" d="M280.81,69.31l-1,4.12a4,4,0,0,1-1.08,2.07,3.32,3.32,0,0,1-2.33.75h-7.89c-1.44,0-2.16-.55-2.16-1.66a4.58,4.58,0,0,1,.17-1.16l1-4.12a4,4,0,0,1,1.09-2.07,3.31,3.31,0,0,1,2.32-.75h7.9c1.44,0,2.16.55,2.16,1.66A5.08,5.08,0,0,1,280.81,69.31ZM276,69.13a1.26,1.26,0,0,0,0-.27c0-.31-.19-.46-.56-.46h-2.12a.83.83,0,0,0-.85.73l-1.12,4.48a1,1,0,0,0,0,.29c0,.3.18.44.54.44H274a.84.84,0,0,0,.87-.72Z" transform="translate(-0.92 0)"/><path class="cls-7" d="M301.54,70.31l-1.48,5.94h-4.48l1.8-7.21a.57.57,0,0,0,0-.22q0-.42-.6-.42h-1.45a.78.78,0,0,0-.82.64l-1.8,7.21h-4.49L290.07,69a.85.85,0,0,0,0-.22q0-.42-.6-.42h-1.46a.77.77,0,0,0-.81.64l-1.81,7.21H281l1.89-7.56c.13-.55.32-1.29.54-2.2h4.24l-.29,1.18h0c.45-.79,1-1.18,1.53-1.18h4.55a1.48,1.48,0,0,1,1.09.31,1.53,1.53,0,0,1,.2.75h.05a1.55,1.55,0,0,1,1.37-1.06h3.45c1.47,0,2.2.66,2.2,2A8.09,8.09,0,0,1,301.54,70.31Z" transform="translate(-0.92 0)"/></g><g id="Ebene_3-2" data-name="Ebene 3"><path class="cls-8" d="M335.08.36a4.54,4.54,0,0,1,1.49,1,4.84,4.84,0,0,1,1,5.2A4.55,4.55,0,0,1,335.08,9a5,5,0,0,1-3.72,0,4.55,4.55,0,0,1-2.48-2.47,4.77,4.77,0,0,1,1-5.2,4.54,4.54,0,0,1,1.49-1,5,5,0,0,1,3.72,0ZM331.63,1a3.9,3.9,0,0,0-2.09,2.13,4.41,4.41,0,0,0,0,3.16,3.88,3.88,0,0,0,2.09,2.14,4,4,0,0,0,5.21-2s0-.07,0-.11a4.21,4.21,0,0,0,0-3.16,3.83,3.83,0,0,0-.83-1.27A4,4,0,0,0,331.63,1Zm-.12,6.43V2h2.09a1.89,1.89,0,0,1,1.34.38,1.43,1.43,0,0,1,.43,1.12,1.66,1.66,0,0,1-.11.62,1.37,1.37,0,0,1-.3.45,1.42,1.42,0,0,1-.43.29A2,2,0,0,1,334,5l1.62,2.42h-.79L333.3,5h-1.12V7.42Zm2.16-3a1.86,1.86,0,0,0,.52-.11.74.74,0,0,0,.37-.28.93.93,0,0,0,.14-.54.88.88,0,0,0-.11-.47.78.78,0,0,0-.29-.28,1.27,1.27,0,0,0-.41-.15,3.88,3.88,0,0,0-.48,0h-1.23V4.44h.89Z" transform="translate(-0.92 0)"/></g></svg>